# xmcd CD database file
#
# Track frame offsets:
#	150
#	13402
#	28378
#	42852
#	56800
#	70299
#	81705
#	93043
#	105349
#	119470
#	133726
#	145860
#	157197
#	171476
#	182965
#	194836
#	208320
#	222597
#	234933
#	249294
#	262816
#	275872
#	289266
#	300049
#
# Disc length: 4179 seconds
#
# Revision: 0
# Processed by: cddbd v1.5.2PL0 Copyright (c) Steve Scherf et al.
# Submitted via: CDex 1.60beta1-cs1
#
DISCID=7c105118
DTITLE=Lester Young - Les Chefs-DÒeuvre De Lester Young VOL. 1 and 2
DYEAR=2012
DGENRE=Jazz
TTITLE0=New Lester Leaps In
TTITLE1=She´s The Funny That Way
TTITLE2=Lester´s Be Bop Boogie
TTITLE3=You´re Driving Me Crazy
TTITLE4=D. B. Blues
TTITLE5=Lester Blows Again
TTITLE6=The Sheik Of Araby
TTITLE7=Something To Remember You By
TTITLE8=Tea For Two
TTITLE9=East Of The Sun
TTITLE10=After You´ve Gone
TTITLE11=I´m Confessin´ (That I Love You)
TTITLE12=Movin´ With Lester
TTITLE13=Easy Does It
TTITLE14=One O`Clock Jump
TTITLE15=Jumpin´ At The Woodside
TTITLE16=These Foolish Things
TTITLE17=Jumpin´ At Mesner´s
TTITLE18=Jumpin´ With The Symphony Sid
TTITLE19=No Eyes Blue
TTITLE20=Lester Smooths It Out
TTITLE21=Just Cooling
TTITLE22=Sunday
TTITLE23=On The Sunny Side Of The Street
EXTD=YEAR: 2012
EXTT0=
EXTT1=
EXTT2=
EXTT3=
EXTT4=
EXTT5=
EXTT6=
EXTT7=
EXTT8=
EXTT9=
EXTT10=
EXTT11=
EXTT12=
EXTT13=
EXTT14=
EXTT15=
EXTT16=
EXTT17=
EXTT18=
EXTT19=
EXTT20=
EXTT21=
EXTT22=
EXTT23=
PLAYORDER=
